<svg xmlns="http://www.w3.org/2000/svg" viewBox="0 0 45 45"><defs><style>.cls-1{fill:#658d1b;}.cls-2{fill:#fff;}</style></defs><title>ChannelSleeve</title><g id="ChannelsSleeve"><polygon class="cls-1" points="-0.06 0 44.95 0 44.95 45 -0.06 0"/><path class="cls-2" d="M22.86,8.24V4.18a.87.87,0,0,1,.86-.86h4.22a.87.87,0,0,1,.79.54l2.63,6.51a.86.86,0,0,1-1.08,1.13L23.43,9.05A.87.87,0,0,1,22.86,8.24Z"/><path class="cls-2" d="M41.32,8.25V4.17a.85.85,0,0,0-.84-.85H36.24a.85.85,0,0,0-.78.53l-2.65,6.54a.85.85,0,0,0,1.07,1.12L40.76,9A.84.84,0,0,0,41.32,8.25Z"/><path class="cls-2" d="M22.87,16.07v4a.89.89,0,0,0,.88.88h4.19a.89.89,0,0,0,.81-.55L31.36,14a.88.88,0,0,0-1.11-1.15l-6.79,2.43A.89.89,0,0,0,22.87,16.07Z"/><path class="cls-2" d="M41.34,16.15V20a1,1,0,0,1-1,1h-4a1,1,0,0,1-.92-.62L33,14.2a1,1,0,0,1,1.25-1.31l6.48,2.32A1,1,0,0,1,41.34,16.15Z"/><circle class="cls-2" cx="32.14" cy="12.32" r="0.89"/></g></svg>