<svg xmlns="http://www.w3.org/2000/svg" viewBox="0 0 33 33"><defs><style>.cls-1{fill:#fff;}</style></defs><title>Channels_Icon</title><g id="Layer_12" data-name="Layer 12"><path class="cls-1" d="M0,9.78V2.53A1.54,1.54,0,0,1,1.53,1H9.06a1.52,1.52,0,0,1,1.42,1l4.7,11.63a1.53,1.53,0,0,1-1.93,2L1,11.22A1.54,1.54,0,0,1,0,9.78Z"/><path class="cls-1" d="M33,9.79V2.51A1.52,1.52,0,0,0,31.46,1H23.9a1.5,1.5,0,0,0-1.4,1L17.78,13.63a1.51,1.51,0,0,0,1.91,2L32,11.22A1.52,1.52,0,0,0,33,9.79Z"/><path class="cls-1" d="M0,23.76V31a1.56,1.56,0,0,0,1.57,1.56H9.06a1.57,1.57,0,0,0,1.46-1L15.18,20a1.56,1.56,0,0,0-2-2.06L1.06,22.29A1.56,1.56,0,0,0,0,23.76Z"/><path class="cls-1" d="M33,23.9v6.84a1.77,1.77,0,0,1-1.77,1.77H24.1a1.76,1.76,0,0,1-1.64-1.1L18,20.42a1.76,1.76,0,0,1,2.23-2.33l11.58,4.15A1.77,1.77,0,0,1,33,23.9Z"/><circle class="cls-1" cx="16.58" cy="17.08" r="1.59"/></g></svg>