<svg xmlns="http://www.w3.org/2000/svg" viewBox="0 0 33 33"><defs><style>.cls-1{fill:#fff;}</style></defs><title>CostStructure_Icon</title><g id="Layer_13" data-name="Layer 13"><path class="cls-1" d="M31.73,18.26,18.93,5.44a3.6,3.6,0,0,0-2.54-1.05h-.23L6.89,5A2,2,0,0,0,5,6.89l-.23,3.29a6.67,6.67,0,0,1-1.32-1A5.82,5.82,0,0,1,1.74,5.68a3.63,3.63,0,0,1,1-3c1.58-1.57,4.47-1.22,6.47.77a.86.86,0,1,0,1.21-1.21c-2.67-2.65-6.66-3-8.9-.76A5.29,5.29,0,0,0,0,5.86a7.59,7.59,0,0,0,2.22,4.52A8,8,0,0,0,4.67,12L4.4,16.16a3.54,3.54,0,0,0,1,2.77L18.26,31.75a4.24,4.24,0,0,0,3,1.25h0a4.28,4.28,0,0,0,3-1.25l7.43-7.43a4.24,4.24,0,0,0,1.25-3A4.28,4.28,0,0,0,31.73,18.26Zm-1.2,4.84L23.1,30.54a2.58,2.58,0,0,1-1.82.75h0a2.59,2.59,0,0,1-1.83-.75L6.64,17.72a1.83,1.83,0,0,1-.55-1.45l.25-3.73.43.06.63,0a5.16,5.16,0,0,0,3.73-1.48.85.85,0,0,0,0-1.21.86.86,0,0,0-1.21,0,3.61,3.61,0,0,1-3,1,4,4,0,0,1-.48-.07L6.71,7A.33.33,0,0,1,7,6.72l9.26-.61h.13a1.88,1.88,0,0,1,1.33.55L30.53,19.46a2.58,2.58,0,0,1,0,3.64Z"/></g></svg>