<svg xmlns="http://www.w3.org/2000/svg" viewBox="0 0 45 45"><defs><style>.cls-1{fill:#007681;}.cls-2{fill:#fff;}</style></defs><title>CostStructureSleeve</title><g id="CostStrucSleeve"><polygon class="cls-1" points="-0.06 0 44.95 0 44.95 45 -0.06 0"/><path class="cls-2" d="M41.15,15.22,32.51,6.58a2.37,2.37,0,0,0-1.71-.71h-.15l-6.25.42a1.35,1.35,0,0,0-1.26,1.26L23,9.77a4.44,4.44,0,0,1-.9-.68,4,4,0,0,1-1.16-2.35,2.43,2.43,0,0,1,.65-2c1.06-1.06,3-.83,4.36.52a.58.58,0,0,0,.81,0,.57.57,0,0,0,0-.82c-1.8-1.79-4.49-2-6-.51a3.54,3.54,0,0,0-1,2.94,5.1,5.1,0,0,0,1.49,3.05A5.36,5.36,0,0,0,22.9,11l-.18,2.78a2.4,2.4,0,0,0,.7,1.87l8.64,8.64a2.87,2.87,0,0,0,2,.85h0a2.9,2.9,0,0,0,2-.85l5-5a2.92,2.92,0,0,0,.84-2A2.87,2.87,0,0,0,41.15,15.22Zm-.81,3.27-5,5a1.77,1.77,0,0,1-1.23.5h0a1.73,1.73,0,0,1-1.23-.5l-8.64-8.64a1.29,1.29,0,0,1-.37-1L24,11.36l.29,0,.42,0a3.49,3.49,0,0,0,2.52-1,.58.58,0,0,0-.82-.82,2.43,2.43,0,0,1-2,.65l-.32,0,.17-2.57a.21.21,0,0,1,.19-.2L30.72,7h.08a1.25,1.25,0,0,1,.9.37L40.34,16a1.75,1.75,0,0,1,.5,1.23A1.77,1.77,0,0,1,40.34,18.49Z"/></g></svg>