<svg xmlns="http://www.w3.org/2000/svg" viewBox="0 0 45 45"><defs><style>.cls-1{fill:#279989;}.cls-2{fill:#fff;}</style></defs><title>CustoSegSleeve</title><g id="CustSegSleeve"><polygon class="cls-1" points="-0.06 0 44.95 0 44.95 45 -0.06 0"/><path class="cls-2" d="M39.12,4.25H24.55A1.55,1.55,0,0,0,23,5.8V20.37a1.56,1.56,0,0,0,1.56,1.55H39.12a1.56,1.56,0,0,0,1.55-1.55V5.8A1.55,1.55,0,0,0,39.12,4.25Zm.51,16.12a.52.52,0,0,1-.51.52H24.55a.52.52,0,0,1-.52-.52V5.8a.52.52,0,0,1,.52-.52H39.12a.51.51,0,0,1,.51.52Z"/><path class="cls-2" d="M37,7.88a.52.52,0,0,0-.73,0l-9.67,9.67a.52.52,0,0,0,0,.73.53.53,0,0,0,.74,0L37,8.62A.53.53,0,0,0,37,7.88Z"/></g></svg>