<svg xmlns="http://www.w3.org/2000/svg" viewBox="0 0 33 33"><defs><style>.cls-1{fill:#fff;}</style></defs><title>CustomerSegment_Icon</title><g id="Layer_10" data-name="Layer 10"><path class="cls-1" d="M30.11,0H3A2.9,2.9,0,0,0,.13,2.89V30A2.9,2.9,0,0,0,3,32.87H30.11A2.9,2.9,0,0,0,33,30V2.89A2.9,2.9,0,0,0,30.11,0Zm1,30a1,1,0,0,1-1,1H3a1,1,0,0,1-1-1V2.89a1,1,0,0,1,1-1H30.11a1,1,0,0,1,1,1Z"/><path class="cls-1" d="M26.23,6.77a1,1,0,0,0-1.36,0l-18,18A1,1,0,1,0,8.26,26.1l18-18A1,1,0,0,0,26.23,6.77Z"/></g></svg>