<svg xmlns="http://www.w3.org/2000/svg" viewBox="0 0 45 45"><defs><style>.cls-1{fill:#abad23;}.cls-2{fill:#fff;}</style></defs><title>CustomerRelationSleeve</title><g id="CustRelationSleeve"><polygon class="cls-1" points="-0.06 0 44.95 0 44.95 45 -0.06 0"/><path class="cls-2" d="M38.08,11.07a.3.3,0,0,1,.3.3v8.45a.31.31,0,0,1-.3.3H28.63l-.3.34-1.57,1.78V11.37a.3.3,0,0,1,.3-.3h11m0-1h-11a1.33,1.33,0,0,0-1.32,1.33V25l3.36-3.82h9a1.33,1.33,0,0,0,1.33-1.32V11.37A1.34,1.34,0,0,0,38.08,10Z"/><path class="cls-2" d="M40.92,5.37v11.9a.3.3,0,0,1-.3.3h-11a.3.3,0,0,1-.29-.3V7.79a.3.3,0,0,1,.29-.3h9.45l.31-.35,1.56-1.77m1-2.72L38.59,6.46h-9a1.33,1.33,0,0,0-1.32,1.33v9.48a1.32,1.32,0,0,0,1.32,1.32h11A1.33,1.33,0,0,0,42,17.27V2.65Z"/><polygon class="cls-2" points="32.42 16.8 30.93 15.08 31.7 14.41 32.47 15.29 35.93 11.84 36.66 12.56 32.42 16.8"/></g></svg>