<svg xmlns="http://www.w3.org/2000/svg" viewBox="0 0 33 33"><defs><style>.cls-1{fill:#fff;}</style></defs><title>CustomerRelation_Icon</title><g id="Layer_9" data-name="Layer 9"><path class="cls-1" d="M22.8,12.46a.44.44,0,0,1,.45.44V25.4a.45.45,0,0,1-.45.44H8.41l-.47.51L5.56,29V12.9A.45.45,0,0,1,6,12.46H22.8m0-1.52H6a2,2,0,0,0-2,2V33l5.12-5.64H22.8a2,2,0,0,0,2-2V12.9a2,2,0,0,0-2-2Z"/><path class="cls-1" d="M27.12,4V21.62a.44.44,0,0,1-.45.44H9.89a.45.45,0,0,1-.46-.44V7.6a.45.45,0,0,1,.46-.44H24.27l.47-.51L27.12,4m1.56-4L23.57,5.64H9.89a2,2,0,0,0-2,2v14a2,2,0,0,0,2,2H26.67a2,2,0,0,0,2-2V0Z"/><polygon class="cls-1" points="14.18 20.93 11.9 18.39 13.09 17.39 14.26 18.7 19.52 13.59 20.63 14.67 14.18 20.93"/></g></svg>