<svg xmlns="http://www.w3.org/2000/svg" viewBox="0 0 72 144"><defs><style>.cls-1{fill:#005f86;}.cls-2{fill:#fff;}</style></defs><title>Email_Enable</title><g id="Layer_2" data-name="Layer 2"><circle class="cls-1" cx="36" cy="36.5" r="32.81"/></g><g id="Layer_1" data-name="Layer 1"><path class="cls-2" d="M51.19,31.56a.68.68,0,0,0-.27-.54l-2.41-1.81V27.54a.67.67,0,0,0-.2-.48l-6.71-6.7a.63.63,0,0,0-.47-.2H27a2.69,2.69,0,0,0-2.68,2.68v6.37L22,31a.68.68,0,0,0-.27.54h0V47a2.68,2.68,0,0,0,2.68,2.68H48.51A2.68,2.68,0,0,0,51.19,47V31.56Zm-2.68-.67.9.68-.9.7ZM41.8,22.45l4.42,4.42H43.14a1.35,1.35,0,0,1-1.34-1.35Zm-16.1.39A1.34,1.34,0,0,1,27,21.5H40.46v4a2.69,2.69,0,0,0,2.68,2.69h4v5.11L44,35.79H28.83L25.7,33.32ZM43,36.62c-2.24,1.78-4.44,3.56-5.63,4.62a1.47,1.47,0,0,1-1.85,0c-1.2-1.07-3.39-2.84-5.62-4.62C31.63,36.69,41.34,36.66,43,36.62ZM24.36,30.89v1.39l-.91-.71ZM49.85,47a1.34,1.34,0,0,1-1.34,1.34H24.36A1.34,1.34,0,0,1,23,47V32.93c2.8,2.18,9.27,7.25,11.59,9.31a2.71,2.71,0,0,0,1.8.72,2.77,2.77,0,0,0,1.83-.72c2.41-2.14,9-7.29,11.61-9.31Z"/><path class="cls-2" d="M37.19,33a5.51,5.51,0,0,1-2.45.48,4.07,4.07,0,0,1-4.18-4.22,4.94,4.94,0,0,1,5-5.1,3.82,3.82,0,0,1,4,3.87c0,1.95-1.1,3.19-2.55,3.19a1,1,0,0,1-1.15-1h0a2,2,0,0,1-1.72,1,1.53,1.53,0,0,1-1.5-1.74,3.05,3.05,0,0,1,3.13-3.12,3.69,3.69,0,0,1,1.59.33L37,29.19c-.13.79,0,1.15.34,1.16.57,0,1.29-.72,1.29-2.26A3,3,0,0,0,35.42,25a3.9,3.9,0,0,0-3.84,4.16A3.24,3.24,0,0,0,35,32.67,4.36,4.36,0,0,0,37,32.24ZM36,27.49a1.5,1.5,0,0,0-.42-.06A1.77,1.77,0,0,0,34,29.33c0,.51.23.84.67.84s1-.63,1.14-1.41Z"/><path class="cls-2" d="M47.13,98.89h-.84V97a4.83,4.83,0,0,0-4.83-4.82H31.33A4.82,4.82,0,0,0,26.51,97v1.87h-.77a4.83,4.83,0,0,0-4.82,4.83v7.78a4.82,4.82,0,0,0,4.82,4.82h.76v6.12a2.41,2.41,0,0,0,2.41,2.41h15a2.41,2.41,0,0,0,2.41-2.41v-6.12h.85A4.82,4.82,0,0,0,52,111.5v-7.78A4.83,4.83,0,0,0,47.13,98.89ZM28.33,97a3,3,0,0,1,3-3H41.45a3,3,0,0,1,3,3v1.87H28.33Zm16.12,25.43a.59.59,0,0,1-.58.59h-15a.59.59,0,0,1-.58-.59V112.36H44.45Zm5.67-11a3,3,0,0,1-3,3h-.84v-2.14h1.2a.91.91,0,1,0,0-1.82H25.16a.91.91,0,0,0,0,1.82h1.35v2.14h-.77a3,3,0,0,1-3-3v-7.78a3,3,0,0,1,3-3H47.13a3,3,0,0,1,3,3Z"/><path class="cls-2" d="M30.54,116.86H42.17a.92.92,0,1,0,0-1.83H30.54a.92.92,0,0,0,0,1.83Z"/><path class="cls-2" d="M42.25,118.77H30.61a.91.91,0,1,0,0,1.82H42.24a.91.91,0,0,0,0-1.82Z"/><path class="cls-2" d="M47.11,102.48H45.25a.91.91,0,1,0,0,1.82h1.86a.91.91,0,1,0,0-1.82Z"/></g></svg>