<svg xmlns="http://www.w3.org/2000/svg" viewBox="0 0 33 33"><defs><style>.cls-1{fill:#fff;}</style></defs><title>KeyMetrics_icon</title><g id="Layer_11" data-name="Layer 11"><path class="cls-1" d="M4.8,20.41H1.48A1.48,1.48,0,0,0,0,21.89v8.63A1.48,1.48,0,0,0,1.48,32H4.8a1.48,1.48,0,0,0,1.48-1.48V21.89A1.49,1.49,0,0,0,4.8,20.41Zm.51,10.11A.51.51,0,0,1,4.8,31H1.48A.52.52,0,0,1,1,30.52V21.89a.51.51,0,0,1,.52-.51H4.8a.51.51,0,0,1,.51.51Z"/><path class="cls-1" d="M13.67,13.65H10.35a1.47,1.47,0,0,0-1.48,1.47v2.74a.49.49,0,1,0,1,0V15.12a.51.51,0,0,1,.51-.51h3.32a.51.51,0,0,1,.51.51v15.4a.51.51,0,0,1-.51.52H10.35a.51.51,0,0,1-.51-.52V19.79a.49.49,0,0,0-1,0V30.52A1.48,1.48,0,0,0,10.35,32h3.32a1.48,1.48,0,0,0,1.48-1.48V15.13A1.48,1.48,0,0,0,13.67,13.65Z"/><path class="cls-1" d="M22.54,17.71H19.22a1.48,1.48,0,0,0-1.48,1.47V30.52A1.48,1.48,0,0,0,19.22,32h3.32A1.48,1.48,0,0,0,24,30.52V19.18A1.47,1.47,0,0,0,22.54,17.71Zm.52,12.81a.52.52,0,0,1-.52.52H19.22a.51.51,0,0,1-.51-.52V19.18a.51.51,0,0,1,.51-.51h3.32a.51.51,0,0,1,.52.51Z"/><path class="cls-1" d="M31.41,10.27H28.09a1.48,1.48,0,0,0-1.48,1.47V25.51a.49.49,0,0,0,1,0V11.74a.51.51,0,0,1,.51-.51h3.32a.51.51,0,0,1,.52.51V30.52a.52.52,0,0,1-.52.52H28.09a.51.51,0,0,1-.51-.52V27.44a.49.49,0,1,0-1,0v3.08A1.48,1.48,0,0,0,28.09,32h3.32a1.48,1.48,0,0,0,1.48-1.48V11.74A1.47,1.47,0,0,0,31.41,10.27Z"/><path class="cls-1" d="M3.14,11.47a3,3,0,1,0,3,3,2.56,2.56,0,0,0,0-.39l4.74-3.61a3,3,0,0,0,2.9-.32L17.89,12a3,3,0,0,0,6-.28,3,3,0,0,0,0-.52l4.88-4.1a2.94,2.94,0,0,0,1,.18,3,3,0,1,0-3-3,3,3,0,0,0,.05.52l-4.89,4.1a2.94,2.94,0,0,0-1-.18,3,3,0,0,0-1.74.56L15,7.42A3,3,0,0,0,9,7.7C9,7.83,9,8,9,8.09L4.3,11.7A3,3,0,0,0,3.14,11.47ZM29.75,2.28a2,2,0,0,1,0,4.08,2,2,0,1,1,0-4.08Zm-2.6,3.53,0,0a3.29,3.29,0,0,0,.66.78l-4.34,3.64s-.14-.22-.21-.31a3.3,3.3,0,0,0-.48-.51Zm-8.31,5.92a2,2,0,0,1,4.08,0,2,2,0,0,1-4.08,0ZM14.49,9.4a3.27,3.27,0,0,0,.43-1l3.5,1.6a2.85,2.85,0,0,0-.41.84S18,11,18,11l-3.5-1.6ZM12,5.66a2,2,0,0,1,2,2A2,2,0,0,1,10,7.7,2,2,0,0,1,12,5.66ZM9.34,9.07l0,0a3.11,3.11,0,0,0,.62.82L5.81,13.1a3.87,3.87,0,0,0-.27-.43,3,3,0,0,0-.38-.42Zm-5,3.78a2,2,0,1,1-1.21-.42A2,2,0,0,1,4.35,12.85Z"/></g></svg>