<svg xmlns="http://www.w3.org/2000/svg" viewBox="0 0 45 45"><defs><style>.cls-1{fill:#cf7f00;}.cls-2{fill:#fff;}</style></defs><title>KeyMetricSleeve</title><g id="KeyMetricSleeve"><polygon class="cls-1" points="-0.06 0 44.95 0 44.95 45 -0.06 0"/><path class="cls-2" d="M25.19,14.14H23.06a.94.94,0,0,0-.95.95v5.54a.94.94,0,0,0,.95.94h2.13a1,1,0,0,0,.95-.94V15.09A1,1,0,0,0,25.19,14.14Zm.33,6.49a.32.32,0,0,1-.33.32H23.06a.32.32,0,0,1-.33-.32V15.09a.33.33,0,0,1,.33-.33h2.13a.33.33,0,0,1,.33.33Z"/><path class="cls-2" d="M30.88,9.8H28.75a1,1,0,0,0-.95.95V12.5a.31.31,0,1,0,.62,0V10.75a.33.33,0,0,1,.33-.33h2.13a.33.33,0,0,1,.33.33v9.88a.32.32,0,0,1-.33.32H28.75a.32.32,0,0,1-.33-.32V13.74a.31.31,0,1,0-.62,0v6.89a1,1,0,0,0,.95.94h2.13a1,1,0,0,0,.95-.94V10.75A1,1,0,0,0,30.88,9.8Z"/><path class="cls-2" d="M36.57,12.4H34.44a1,1,0,0,0-.95.95v7.28a1,1,0,0,0,.95.94h2.13a.94.94,0,0,0,1-.94V13.35A1,1,0,0,0,36.57,12.4Zm.33,8.23a.32.32,0,0,1-.33.32H34.44a.32.32,0,0,1-.33-.32V13.35a.33.33,0,0,1,.33-.33h2.13a.33.33,0,0,1,.33.33Z"/><path class="cls-2" d="M42.27,7.63H40.13a.94.94,0,0,0-.94.94v8.84a.31.31,0,0,0,.31.31.3.3,0,0,0,.3-.31V8.57a.32.32,0,0,1,.33-.32h2.14a.32.32,0,0,1,.33.32V20.63a.32.32,0,0,1-.33.32H40.13a.32.32,0,0,1-.33-.32v-2a.29.29,0,0,0-.3-.3.3.3,0,0,0-.31.3v2a.94.94,0,0,0,.94.94h2.14a.94.94,0,0,0,.94-.94V8.57A.94.94,0,0,0,42.27,7.63Z"/><path class="cls-2" d="M24.12,8.4a1.93,1.93,0,1,0,1.93,1.92,1.94,1.94,0,0,0,0-.24l3-2.32a1.91,1.91,0,0,0,1.86-.21l2.66,1.22a1.92,1.92,0,0,0,3.84-.18,1.87,1.87,0,0,0,0-.34l3.14-2.63a1.8,1.8,0,0,0,.66.12,1.93,1.93,0,1,0-1.93-1.93,1.87,1.87,0,0,0,0,.34L36.17,6.78a1.84,1.84,0,0,0-.66-.12A1.89,1.89,0,0,0,34.39,7L31.73,5.8A1.92,1.92,0,0,0,27.89,6a2,2,0,0,0,0,.25l-3,2.32A1.86,1.86,0,0,0,24.12,8.4ZM41.2,2.5a1.31,1.31,0,1,1-1.31,1.31A1.31,1.31,0,0,1,41.2,2.5ZM39.53,4.77v0a2.07,2.07,0,0,0,.43.5L37.18,7.63l-.13-.2a1.57,1.57,0,0,0-.31-.32ZM34.2,8.57A1.31,1.31,0,1,1,35.51,9.9,1.32,1.32,0,0,1,34.2,8.57Zm-2.8-1.5a1.78,1.78,0,0,0,.28-.61l2.25,1a1.59,1.59,0,0,0-.26.54l0,.08-2.24-1Zm-1.58-2.4A1.31,1.31,0,0,1,31.12,6a1.31,1.31,0,1,1-2.61,0A1.31,1.31,0,0,1,29.82,4.67ZM28.1,6.86v0a1.89,1.89,0,0,0,.41.52l-2.68,2a2.61,2.61,0,0,0-.17-.28,2.16,2.16,0,0,0-.25-.27ZM24.9,9.28a1.34,1.34,0,0,1,.53,1A1.31,1.31,0,1,1,24.12,9,1.33,1.33,0,0,1,24.9,9.28Z"/></g></svg>