<svg id="Layer_1" data-name="Layer 1" xmlns="http://www.w3.org/2000/svg" viewBox="0 0 40 40"><defs><style>.cls-1{fill:#fff;}</style></defs><title>mail</title><path class="cls-1" d="M34.73,16.64a.68.68,0,0,0-.27-.54l-2.41-1.81V12.62a.67.67,0,0,0-.2-.48l-6.71-6.7a.63.63,0,0,0-.47-.2H10.54A2.69,2.69,0,0,0,7.86,7.92v6.37L5.54,16.08a.68.68,0,0,0-.27.54h0V32.08A2.68,2.68,0,0,0,8,34.76h24.1a2.68,2.68,0,0,0,2.68-2.68h0ZM32.05,16l.9.68-.9.7ZM25.34,7.53,29.76,12H26.68a1.36,1.36,0,0,1-1.34-1.35Zm-16.1.39a1.35,1.35,0,0,1,1.3-1.34H24v4a2.7,2.7,0,0,0,2.68,2.69h4v5.11l-3.14,2.49H12.37L9.24,18.4ZM26.54,21.7c-2.24,1.78-4.44,3.56-5.63,4.62a1.46,1.46,0,0,1-1.85,0c-1.2-1.07-3.39-2.84-5.62-4.62C15.17,21.77,24.88,21.74,26.54,21.7ZM7.9,16v1.39L7,16.65ZM33.39,32.08a1.34,1.34,0,0,1-1.34,1.34H7.9A1.34,1.34,0,0,1,6.54,32.1V18c2.8,2.18,9.27,7.25,11.59,9.31a2.65,2.65,0,0,0,3.63,0c2.41-2.14,9-7.29,11.61-9.31Z"/><path class="cls-1" d="M22.13,18.08a5.45,5.45,0,0,1-2.45.48,4.07,4.07,0,0,1-4.18-4v-.26a4.94,4.94,0,0,1,4.78-5.1h.22a3.82,3.82,0,0,1,4,3.64v.23c0,2-1.1,3.19-2.55,3.19a1,1,0,0,1-1.14-.84.86.86,0,0,1,0-.16h0a2,2,0,0,1-1.72,1,1.53,1.53,0,0,1-1.51-1.55,1.21,1.21,0,0,1,0-.19,3.06,3.06,0,0,1,3-3.12h.15a3.63,3.63,0,0,1,1.59.33l-.36,2.5c-.13.79,0,1.15.34,1.16.57,0,1.29-.72,1.29-2.26a3,3,0,0,0-2.9-3.1h-.31A3.91,3.91,0,0,0,16.51,14c0,.07,0,.14,0,.21a3.24,3.24,0,0,0,2.95,3.5,2.48,2.48,0,0,0,.47,0,4.32,4.32,0,0,0,2-.43Zm-1.19-5.51a1.52,1.52,0,0,0-.42-.06,1.78,1.78,0,0,0-1.58,1.9c0,.51.23.84.67.84s1-.63,1.14-1.41Z"/></svg>