<svg id="Layer_1" data-name="Layer 1" xmlns="http://www.w3.org/2000/svg" viewBox="0 0 40 40"><defs><style>.cls-1{fill:#fff;}</style></defs><title>print</title><path class="cls-1" d="M30.13,10.89h-.84V9a4.84,4.84,0,0,0-4.83-4.82H14.33A4.82,4.82,0,0,0,9.51,9v1.87H8.74A4.84,4.84,0,0,0,3.92,15.7v7.78A4.82,4.82,0,0,0,8.74,28.3H9.5v6.12a2.41,2.41,0,0,0,2.41,2.41h15a2.41,2.41,0,0,0,2.41-2.41h0V28.3h.85A4.81,4.81,0,0,0,35,23.5V15.72a4.83,4.83,0,0,0-4.83-4.83ZM11.33,9a3,3,0,0,1,3-3H24.45a3,3,0,0,1,3,3v1.87H11.33ZM27.45,34.43a.6.6,0,0,1-.58.59h-15a.6.6,0,0,1-.58-.59V24.36H27.45Zm5.67-11a3,3,0,0,1-3,3h-.84V24.29h1.2a.91.91,0,0,0,0-1.82H8.16a.91.91,0,1,0,0,1.82H9.51v2.14H8.74a3,3,0,0,1-3-3V15.65a3,3,0,0,1,3-3H30.13a3,3,0,0,1,3,3Z"/><path class="cls-1" d="M13.54,28.86H25.17A.92.92,0,1,0,25.36,27a.61.61,0,0,0-.19,0H13.54a.92.92,0,0,0-.82,1A.93.93,0,0,0,13.54,28.86Z"/><path class="cls-1" d="M25.25,30.77H13.61a.91.91,0,0,0,0,1.82H25.24a.91.91,0,0,0,0-1.82Z"/><path class="cls-1" d="M30.11,14.48H28.25a.91.91,0,0,0,0,1.82h1.86a.91.91,0,0,0,0-1.82Z"/></svg>