<svg xmlns="http://www.w3.org/2000/svg" viewBox="0 0 45 45"><defs><style>.cls-1{fill:#9e2a2f;}.cls-2{fill:#fff;}</style></defs><title>ProblemSleeve-08</title><g id="ProblemSleeve"><polygon class="cls-1" points="44.95 45 21.97 22.08 -0.06 0 21.01 0 44.95 0 44.95 45"/><path class="cls-2" d="M37.21,11.1l1.14-1.6L35.49,6.63,33.88,7.78a7.9,7.9,0,0,0-1.31-.55l-.33-1.94H28.19l-.32,1.94a7.66,7.66,0,0,0-1.32.55L25,6.63,22.08,9.5l1.15,1.6a7.66,7.66,0,0,0-.55,1.32l-1.94.32v4l1.94.33a7.9,7.9,0,0,0,.55,1.31L22.08,20,25,22.9l1.6-1.14a7.62,7.62,0,0,0,1.32.54l.32,1.95h4.05l.33-1.95a7.85,7.85,0,0,0,1.31-.54l1.61,1.15L38.35,20l-1.14-1.6a8,8,0,0,0,.54-1.32l2-.33v-4l-2-.32A7.62,7.62,0,0,0,37.21,11.1Zm1.43,4.8-1.72.29-.09.33a6.93,6.93,0,0,1-.7,1.69L36,18.5l1,1.42-1.61,1.61-1.42-1-.29.17a6.93,6.93,0,0,1-1.69.7l-.33.09-.29,1.72H29.08l-.28-1.72-.33-.09a6.62,6.62,0,0,1-1.69-.7l-.3-.17-1.42,1-1.6-1.61,1-1.42-.17-.29a7.35,7.35,0,0,1-.7-1.69l-.08-.33-1.73-.29V13.63l1.73-.29.09-.32a6.6,6.6,0,0,1,.69-1.69l.17-.3-1-1.42L25.06,8l1.43,1,.29-.17a6.75,6.75,0,0,1,1.69-.69l.33-.09.28-1.73h2.27l.29,1.73.33.09a6.91,6.91,0,0,1,1.69.69L34,9l1.43-1L37,9.61,36,11l.17.3a6.62,6.62,0,0,1,.7,1.69l.09.32,1.72.29Z"/><path class="cls-2" d="M29.69,6.87h1v1h-1Z"/><path class="cls-2" d="M24.26,9.55,25,8.81l.75.74L25,10.3Z"/><path class="cls-2" d="M22.32,14.24h1.05v1H22.32Z"/><path class="cls-2" d="M24.26,20l.74-.74.75.74-.75.75Z"/><path class="cls-2" d="M29.69,21.61h1v1.06h-1Z"/><path class="cls-2" d="M34.69,20l.74-.74.75.74-.75.75Z"/><path class="cls-2" d="M37.06,14.24h1.06v1H37.06Z"/><path class="cls-2" d="M34.69,9.55l.74-.74.75.74-.75.75Z"/><path class="cls-2" d="M30.22,9A5.8,5.8,0,1,0,36,14.77,5.8,5.8,0,0,0,30.22,9Zm0,10.54A4.74,4.74,0,1,1,35,14.77,4.74,4.74,0,0,1,30.22,19.51Z"/><path class="cls-2" d="M30.22,17.4a2.63,2.63,0,0,1-2.15-4.16l-.86-.61a3.73,3.73,0,0,0-.68,2.14,3.69,3.69,0,0,0,3.69,3.68,3.62,3.62,0,0,0,2.13-.68l-.61-.86A2.6,2.6,0,0,1,30.22,17.4Z"/><path class="cls-2" d="M30.22,11.08a3.73,3.73,0,0,0-2.14.68l.61.86a2.63,2.63,0,0,1,4.16,2.15,2.6,2.6,0,0,1-.49,1.52l.86.61a3.62,3.62,0,0,0,.68-2.13A3.69,3.69,0,0,0,30.22,11.08Z"/></g></svg>