<svg xmlns="http://www.w3.org/2000/svg" viewBox="0 0 33 33"><defs><style>.cls-1{fill:#fff;}</style></defs><title>Problem</title><g id="Layer_6" data-name="Layer 6"><path class="cls-1" d="M28.48,10.05l2-2.77L25.51,2.34l-2.76,2a13.73,13.73,0,0,0-2.27-.94L19.92,0h-7l-.56,3.35a14.48,14.48,0,0,0-2.27.94l-2.76-2L2.4,7.28l2,2.76a14.48,14.48,0,0,0-.94,2.27l-3.35.56v7l3.35.56a13.73,13.73,0,0,0,.94,2.27l-2,2.77L7.34,30.4l2.76-2a13.58,13.58,0,0,0,2.27.94l.56,3.36h7l.56-3.36a12.88,12.88,0,0,0,2.27-.93l2.76,2,4.95-4.94-2-2.77a12.92,12.92,0,0,0,.94-2.27l3.35-.56v-7l-3.35-.56A12.92,12.92,0,0,0,28.48,10.05ZM31,18.32l-3,.5-.15.57a11.78,11.78,0,0,1-1.21,2.91l-.29.51,1.75,2.45L25.32,28l-2.46-1.76-.51.3a11.53,11.53,0,0,1-2.9,1.2l-.57.15-.5,3H14.47l-.5-3-.56-.15a11.45,11.45,0,0,1-2.91-1.2l-.51-.3L7.53,28,4.77,25.26l1.75-2.45-.29-.51A11.78,11.78,0,0,1,5,19.39l-.15-.57-3-.5V14.41l3-.49L5,13.35a11.62,11.62,0,0,1,1.21-2.91l.29-.51L4.77,7.48,7.53,4.71,10,6.47l.51-.3A11.45,11.45,0,0,1,13.41,5L14,4.82l.5-3h3.91l.5,3,.57.15a11.53,11.53,0,0,1,2.9,1.2l.51.3,2.46-1.76,2.77,2.77L26.33,9.93l.3.51a12,12,0,0,1,1.2,2.91l.15.57,3,.49Z"/><path class="cls-1" d="M15.52,2.75h1.81V4.56H15.52Z"/><path class="cls-1" d="M6.15,7.38,7.44,6.09,8.72,7.38,7.44,8.66Z"/><path class="cls-1" d="M2.8,15.46H4.62v1.82H2.8Z"/><path class="cls-1" d="M6.15,25.36l1.29-1.28,1.28,1.28L7.44,26.64Z"/><path class="cls-1" d="M15.52,28.18h1.81V30H15.52Z"/><path class="cls-1" d="M24.13,25.36l1.29-1.28,1.28,1.28-1.28,1.28Z"/><path class="cls-1" d="M28.23,15.46h1.82v1.82H28.23Z"/><path class="cls-1" d="M24.13,7.38l1.29-1.29L26.7,7.38,25.42,8.66Z"/><path class="cls-1" d="M16.43,6.38a10,10,0,1,0,10,10A10,10,0,0,0,16.43,6.38Zm0,18.16a8.18,8.18,0,1,1,8.17-8.17A8.18,8.18,0,0,1,16.43,24.54Z"/><path class="cls-1" d="M16.43,20.91a4.53,4.53,0,0,1-3.7-7.17l-1.48-1.05a6.3,6.3,0,0,0-1.18,3.68,6.35,6.35,0,0,0,10,5.18l-1.06-1.48A4.49,4.49,0,0,1,16.43,20.91Z"/><path class="cls-1" d="M16.43,10a6.35,6.35,0,0,0-3.69,1.18l1.06,1.48a4.5,4.5,0,0,1,2.63-.84A4.55,4.55,0,0,1,21,16.37,4.48,4.48,0,0,1,20.12,19l1.48,1.05a6.25,6.25,0,0,0,1.18-3.68A6.36,6.36,0,0,0,16.43,10Z"/></g></svg>