<svg xmlns="http://www.w3.org/2000/svg" viewBox="0 0 45 45"><defs><style>.cls-1{fill:#005f86;}.cls-2{fill:#fff;}</style></defs><title>RevenStreamSleeve-08</title><g id="ReveSteamSleeve"><polygon class="cls-1" points="44.95 45 21.97 22.08 -0.06 0 21.01 0 44.95 0 44.95 45"/><path class="cls-2" d="M30.69,24.22a8.61,8.61,0,1,1,8.61-8.61A8.62,8.62,0,0,1,30.69,24.22Zm0-16A7.35,7.35,0,1,0,38,15.61,7.36,7.36,0,0,0,30.69,8.26Z"/><path class="cls-2" d="M28.93,20a1.83,1.83,0,0,1-.77-.57,1.88,1.88,0,0,1-.37-.81,4.22,4.22,0,0,1-.1-1v-.27h1.79c0,.18,0,.36,0,.53a1.71,1.71,0,0,0,.1.46,1,1,0,0,0,.23.35.85.85,0,0,0,.4.22V16.31l-.64-.24a2.63,2.63,0,0,1-1.37-1,2.77,2.77,0,0,1-.41-1.53,2.59,2.59,0,0,1,.63-1.86,2.84,2.84,0,0,1,1.79-.79V10h.83v.89a3.33,3.33,0,0,1,1.19.3,2.12,2.12,0,0,1,.73.56,1.91,1.91,0,0,1,.38.75,3.47,3.47,0,0,1,.1.85v.18H31.67a2.21,2.21,0,0,0-.14-.83.7.7,0,0,0-.47-.43v2.45l1,.42a4.38,4.38,0,0,1,.65.33,1.81,1.81,0,0,1,.5.45,2,2,0,0,1,.33.64,3.14,3.14,0,0,1,.12.93,2.68,2.68,0,0,1-.67,2,3.15,3.15,0,0,1-2,.71v1.13h-.83V20.26A3.93,3.93,0,0,1,28.93,20Zm.67-6.68a1.19,1.19,0,0,0,.63,1.09V12.31A.9.9,0,0,0,29.6,13.3Zm2,5.24a1.2,1.2,0,0,0,.18-.65,1.25,1.25,0,0,0-.76-1.26v2.3A.85.85,0,0,0,31.64,18.54Z"/></g></svg>