<svg xmlns="http://www.w3.org/2000/svg" viewBox="0 0 33 33"><defs><style>.cls-1{fill:#fff;}</style></defs><title>RevenueStream_Icon</title><g id="Layer_14" data-name="Layer 14"><path class="cls-1" d="M16.46,33A16.46,16.46,0,1,1,32.92,16.54,16.47,16.47,0,0,1,16.46,33Zm0-29.87A13.41,13.41,0,1,0,29.87,16.54,13.42,13.42,0,0,0,16.46,3.13Z"/><path class="cls-1" d="M13.47,24.36A3.43,3.43,0,0,1,12,23.31a3.8,3.8,0,0,1-.68-1.5A8.29,8.29,0,0,1,11.18,20v-.5h3.3c0,.34,0,.66,0,1a2.85,2.85,0,0,0,.18.85,1.77,1.77,0,0,0,.42.66,1.58,1.58,0,0,0,.75.39V17.58l-1.2-.43a4.87,4.87,0,0,1-2.51-1.78,5,5,0,0,1-.76-2.81,4.74,4.74,0,0,1,1.16-3.44,5.25,5.25,0,0,1,3.31-1.45V6H17.4V7.67a6.27,6.27,0,0,1,2.19.54,3.92,3.92,0,0,1,1.35,1,3.58,3.58,0,0,1,.7,1.39,6.8,6.8,0,0,1,.19,1.56v.33h-3.3A4.65,4.65,0,0,0,18.26,11a1.3,1.3,0,0,0-.86-.8v4.52l1.89.77a9.1,9.1,0,0,1,1.21.62,3.32,3.32,0,0,1,.92.83,3.45,3.45,0,0,1,.6,1.18,5.93,5.93,0,0,1,.21,1.7A4.91,4.91,0,0,1,21,23.56a5.74,5.74,0,0,1-3.6,1.32V27H15.87V24.88A7.81,7.81,0,0,1,13.47,24.36ZM14.7,12a2.18,2.18,0,0,0,1.17,2V10.21A1.65,1.65,0,0,0,14.7,12Zm3.77,9.68a2.38,2.38,0,0,0,.32-1.21,2.6,2.6,0,0,0-.35-1.44,2.7,2.7,0,0,0-1-.88v4.23A1.6,1.6,0,0,0,18.47,21.71Z"/></g></svg>