<svg xmlns="http://www.w3.org/2000/svg" viewBox="0 0 45 45"><defs><style>.cls-1{fill:#be531c;}.cls-2{fill:#fff;}</style></defs><title>SolutionSleeve</title><g id="SolutionSleeve"><polygon class="cls-1" points="-0.06 0 44.95 0 44.95 45 -0.06 0"/><path class="cls-2" d="M27.73,7.73,24.84,5l-3.43-.38-1,1.07L23,8.12,21.36,9.84,18.78,7.41l-1,1.08.59,3.39,2.9,2.73,2.5-.08L32,22.29l.08,2.5L35,27.52l3.43.39,1-1.08L36.83,24.4l1.62-1.71L41,25.11,42,24l-.59-3.39-2.9-2.73-2.5.07-8.24-7.75ZM38.1,19.11l2.25,2.13.34,1.94L38.4,21l-3.24,3.43,2.29,2.16-2-.22-2.26-2.12-.07-2.5-9-8.43-2.51.07-2.25-2.12-.34-1.94,2.29,2.16,3.24-3.44L22.36,5.91l1.95.22,2.26,2.13.07,2.5,9,8.43Z"/><path class="cls-2" d="M25.2,12.65l.81-.86.86.81-.81.86Z"/><path class="cls-2" d="M26.92,14.27l.81-.86,5.16,4.85-.81.86Z"/><path class="cls-2" d="M32.94,19.93l.81-.86.86.81-.81.86Z"/></g></svg>