<svg xmlns="http://www.w3.org/2000/svg" viewBox="0 0 33 33"><defs><style>.cls-1{fill:#fff;}</style></defs><title>Solution_Icon</title><g id="Layer_7" data-name="Layer 7"><path class="cls-1" d="M13.77,5.77,10.2,2.2,5.87,1.58,4.54,2.9,7.72,6.08,5.6,8.2,2.42,5,1.1,6.35l.61,4.33,3.58,3.58H8.47L18.64,24.42V27.6l3.57,3.58,4.33.62,1.33-1.33-3.18-3.18,2.12-2.12L30,28.35,31.31,27,30.7,22.7l-3.58-3.58H23.94L13.77,9ZM26.5,20.62l2.78,2.78.36,2.48-2.83-2.83-4.24,4.24,2.82,2.83-2.47-.36L20.14,27V23.8l-11-11H5.91L3.13,10,2.77,7.5,5.6,10.33,9.84,6.08,7,3.26l2.47.35,2.78,2.78V9.58l11.05,11Z"/><path class="cls-1" d="M10.37,11.92l1.06-1.06,1.06,1.06L11.43,13Z"/><path class="cls-1" d="M12.49,14,13.55,13l6.37,6.36L18.86,20.4Z"/><path class="cls-1" d="M19.92,21.46,21,20.4,22,21.46,21,22.52Z"/></g></svg>