<svg xmlns="http://www.w3.org/2000/svg" viewBox="0 0 33 33"><defs><style>.cls-1{fill:#fff;}</style></defs><title>UniqueValueProp_Icon</title><g id="Layer_8" data-name="Layer 8"><path class="cls-1" d="M30.94,8.77H24.41a7.55,7.55,0,0,0,1.15-1,4.84,4.84,0,0,0,0-6.48,4.17,4.17,0,0,0-6,0c-.89,1-3.26,4.86-2.94,7.47h-.14c.32-2.61-2-6.51-2.94-7.47a4.17,4.17,0,0,0-6,0,4.82,4.82,0,0,0,0,6.48,7.55,7.55,0,0,0,1.15,1H2.06A2.14,2.14,0,0,0,0,11v5.51a1.06,1.06,0,0,0,1,1.1h1V30.8A2.14,2.14,0,0,0,4.12,33H28.88a2.14,2.14,0,0,0,2.06-2.2V17.58h1a1.06,1.06,0,0,0,1-1.1V11A2.14,2.14,0,0,0,30.94,8.77ZM8.9,2.86a2.09,2.09,0,0,1,3.12,0c1.39,1.49,2.78,5.3,2.3,5.84a.7.7,0,0,1-.39.07c-1.42,0-4.14-1.58-5-2.54A2.52,2.52,0,0,1,8.9,2.86ZM15.47,30.8H4.12V17.58H15.47Zm0-15.42H2.06V11H15.47ZM21,2.86a2.14,2.14,0,0,1,3.12,0,2.52,2.52,0,0,1,0,3.37c-.89,1-3.61,2.54-5,2.54a.7.7,0,0,1-.39-.07C18.2,8.16,19.59,4.35,21,2.86Zm7.9,27.94H17.53V17.58H28.88Zm2.06-15.42H17.53V11H30.94Z"/></g></svg>