<svg xmlns="http://www.w3.org/2000/svg" viewBox="0 0 45 45"><defs><style>.cls-1{fill:#daaa00;}.cls-2{fill:#fff;}</style></defs><title>UVPSleeve</title><g id="UVP_Sleeve" data-name="UVP Sleeve"><polygon class="cls-1" points="-0.06 0 44.95 0 44.95 45 -0.06 0"/><path class="cls-2" d="M41.2,8h-4a5.33,5.33,0,0,0,.71-.56,2.66,2.66,0,0,0,0-3.73,2.69,2.69,0,0,0-3.71,0c-.55.55-2,2.79-1.8,4.29H32.3c.2-1.5-1.26-3.74-1.81-4.29a2.69,2.69,0,0,0-3.71,0,2.66,2.66,0,0,0,0,3.73,6.08,6.08,0,0,0,.71.56h-4a1.27,1.27,0,0,0-1.27,1.27v3.16a.63.63,0,0,0,.63.63h.64v7.59a1.26,1.26,0,0,0,1.26,1.27H39.93a1.27,1.27,0,0,0,1.27-1.27V13.05h.63a.63.63,0,0,0,.63-.63V9.26A1.27,1.27,0,0,0,41.2,8ZM27.68,4.6a1.35,1.35,0,0,1,1.92,0c.85.85,1.7,3,1.4,3.35a.41.41,0,0,1-.23,0,6.22,6.22,0,0,1-3.09-1.46A1.37,1.37,0,0,1,27.68,4.6Zm4,16h-7V13.05h7Zm0-8.85H23.49V9.26h8.22ZM35.09,4.6A1.36,1.36,0,1,1,37,6.53,6.19,6.19,0,0,1,33.92,8a.43.43,0,0,1-.24,0C33.39,7.64,34.23,5.45,35.09,4.6Zm4.84,16H33V13.05h7Zm1.27-8.85H33V9.26H41.2Z"/></g></svg>